<svg xmlns="http://www.w3.org/2000/svg" xmlns:xlink="http://www.w3.org/1999/xlink" width="500" zoomAndPan="magnify" viewBox="0 0 375 374.999991" height="500" preserveAspectRatio="xMidYMid meet" version="1.0"><defs><g/><clipPath id="5fefba422f"><path d="M 50.566406 170.21875 L 113.566406 170.21875 L 113.566406 187.46875 L 50.566406 187.46875 Z M 50.566406 170.21875 " clip-rule="nonzero"/></clipPath><clipPath id="a21dd8340f"><path d="M 258.738281 170.21875 L 321.738281 170.21875 L 321.738281 187.46875 L 258.738281 187.46875 Z M 258.738281 170.21875 " clip-rule="nonzero"/></clipPath></defs><rect x="-37.5" width="450" fill="#ffffff" y="-37.499999" height="449.999989" fill-opacity="1"/><rect x="-37.5" width="450" fill="#ffffff" y="-37.499999" height="449.999989" fill-opacity="1"/><rect x="-37.5" width="450" fill="#a14c47" y="-37.499999" height="449.999989" fill-opacity="1"/><g fill="#ffffff" fill-opacity="1"><g transform="translate(118.701621, 191.546364)"><g><path d="M 14.578125 -18.703125 C 14.335938 -19.128906 13.425781 -19.34375 11.84375 -19.34375 C 9.769531 -19.34375 8.195312 -18.640625 7.125 -17.234375 C 6.050781 -15.828125 5.515625 -13.796875 5.515625 -11.140625 C 5.515625 -5.628906 7.578125 -2.875 11.703125 -2.875 C 11.773438 -2.875 12.070312 -2.875 12.59375 -2.875 C 13.113281 -2.875 13.609375 -2.945312 14.078125 -3.09375 C 14.546875 -3.238281 14.820312 -3.390625 14.90625 -3.546875 C 15 -3.703125 15.046875 -3.945312 15.046875 -4.28125 L 15.046875 -6.953125 L 18.46875 -6.71875 L 18.46875 -0.9375 C 16.726562 -0.0195312 14.519531 0.4375 11.84375 0.4375 C 8.425781 0.4375 5.820312 -0.519531 4.03125 -2.4375 C 2.238281 -4.351562 1.34375 -7.207031 1.34375 -11 C 1.34375 -13.101562 1.640625 -14.929688 2.234375 -16.484375 C 2.835938 -18.046875 3.65625 -19.265625 4.6875 -20.140625 C 6.6875 -21.804688 9.070312 -22.640625 11.84375 -22.640625 C 14.070312 -22.640625 16.164062 -22.1875 18.125 -21.28125 L 18.125 -15.59375 L 14.71875 -15.359375 L 14.71875 -17.96875 C 14.71875 -18.300781 14.671875 -18.546875 14.578125 -18.703125 Z M 14.578125 -18.703125 "/></g></g></g><g fill="#ffffff" fill-opacity="1"><g transform="translate(138.837107, 191.546364)"><g><path d="M 11.546875 -22.640625 C 14.191406 -22.640625 16.40625 -21.703125 18.1875 -19.828125 C 19.976562 -17.960938 20.875 -15.101562 20.875 -11.25 C 20.875 -7.40625 19.988281 -4.492188 18.21875 -2.515625 C 16.445312 -0.546875 14.046875 0.4375 11.015625 0.4375 C 7.992188 0.4375 5.625 -0.539062 3.90625 -2.5 C 2.195312 -4.46875 1.34375 -7.328125 1.34375 -11.078125 C 1.34375 -13.128906 1.640625 -14.925781 2.234375 -16.46875 C 2.835938 -18.019531 3.628906 -19.222656 4.609375 -20.078125 C 6.597656 -21.785156 8.910156 -22.640625 11.546875 -22.640625 Z M 5.515625 -11.234375 C 5.515625 -5.703125 7.4375 -2.9375 11.28125 -2.9375 C 13.320312 -2.9375 14.757812 -3.785156 15.59375 -5.484375 C 16.351562 -6.984375 16.734375 -8.8125 16.734375 -10.96875 C 16.734375 -12.914062 16.394531 -14.703125 15.71875 -16.328125 C 15.34375 -17.210938 14.769531 -17.910156 14 -18.421875 C 13.226562 -18.941406 12.226562 -19.203125 11 -19.203125 C 9.78125 -19.203125 8.726562 -18.800781 7.84375 -18 C 6.957031 -17.195312 6.347656 -16.222656 6.015625 -15.078125 C 5.679688 -13.941406 5.515625 -12.660156 5.515625 -11.234375 Z M 5.515625 -11.234375 "/></g></g></g><g fill="#ffffff" fill-opacity="1"><g transform="translate(161.046356, 191.546364)"><g><path d="M 6.71875 -18.328125 L 6.71875 -7.21875 C 6.71875 -5.664062 7.09375 -4.570312 7.84375 -3.9375 C 8.59375 -3.300781 9.660156 -2.984375 11.046875 -2.984375 C 12.441406 -2.984375 13.523438 -3.328125 14.296875 -4.015625 C 15.066406 -4.703125 15.453125 -5.71875 15.453125 -7.0625 L 15.453125 -19.296875 L 13.515625 -19.40625 L 13.515625 -22.25 L 21.4375 -22.25 L 21.4375 -19.53125 L 20.34375 -19.4375 C 19.695312 -19.375 19.375 -19.039062 19.375 -18.4375 L 19.375 -6.484375 C 19.375 -4.328125 18.613281 -2.632812 17.09375 -1.40625 C 15.570312 -0.175781 13.472656 0.4375 10.796875 0.4375 C 8.128906 0.4375 6.109375 -0.15625 4.734375 -1.34375 C 3.359375 -2.539062 2.671875 -4.4375 2.671875 -7.03125 L 2.671875 -19.296875 L 0.734375 -19.40625 L 0.734375 -22.25 L 8.828125 -22.25 L 8.828125 -19.53125 L 7.734375 -19.4375 C 7.367188 -19.394531 7.109375 -19.300781 6.953125 -19.15625 C 6.796875 -19.007812 6.71875 -18.734375 6.71875 -18.328125 Z M 6.71875 -18.328125 "/></g></g></g><g fill="#ffffff" fill-opacity="1"><g transform="translate(183.088354, 191.546364)"><g><path d="M 1.078125 0 L 1.078125 -2.703125 L 2.171875 -2.8125 C 2.816406 -2.875 3.140625 -3.1875 3.140625 -3.75 L 3.140625 -19.296875 L 1.234375 -19.40625 L 1.234375 -22.25 L 10.375 -22.25 C 12.957031 -22.25 14.941406 -21.769531 16.328125 -20.8125 C 17.710938 -19.851562 18.40625 -18.28125 18.40625 -16.09375 C 18.40625 -14.570312 18.007812 -13.320312 17.21875 -12.34375 C 16.425781 -11.363281 15.484375 -10.648438 14.390625 -10.203125 C 15.191406 -9.910156 15.828125 -9.226562 16.296875 -8.15625 L 18.703125 -2.90625 L 20.609375 -2.84375 L 20.609375 0 L 12.34375 0 L 12.34375 -2.703125 L 13.3125 -2.8125 C 13.820312 -2.875 14.078125 -3.070312 14.078125 -3.40625 C 14.078125 -3.539062 14.035156 -3.695312 13.953125 -3.875 L 12.375 -7.21875 C 12.132812 -7.78125 11.863281 -8.175781 11.5625 -8.40625 C 11.257812 -8.644531 10.828125 -8.765625 10.265625 -8.765625 L 7.21875 -8.765625 L 7.21875 -2.9375 L 9.40625 -2.84375 L 9.40625 0 Z M 7.21875 -11.9375 L 10.140625 -11.9375 C 12.878906 -11.9375 14.25 -13.164062 14.25 -15.625 C 14.25 -17.03125 13.882812 -17.941406 13.15625 -18.359375 C 12.4375 -18.785156 11.273438 -19 9.671875 -19 L 7.21875 -19 Z M 7.21875 -11.9375 "/></g></g></g><g fill="#ffffff" fill-opacity="1"><g transform="translate(204.026589, 191.546364)"><g><path d="M 3.140625 -3.90625 L 3.140625 -19.296875 L 1.234375 -19.40625 L 1.234375 -22.25 L 9.328125 -22.25 L 9.328125 -19.53125 L 8.234375 -19.4375 C 7.585938 -19.375 7.265625 -19.015625 7.265625 -18.359375 L 7.265625 -2.9375 L 9.171875 -2.84375 L 9.171875 0 L 1.078125 0 L 1.078125 -2.703125 L 2.171875 -2.8125 C 2.503906 -2.851562 2.75 -2.945312 2.90625 -3.09375 C 3.0625 -3.238281 3.140625 -3.507812 3.140625 -3.90625 Z M 3.140625 -3.90625 "/></g></g></g><g fill="#ffffff" fill-opacity="1"><g transform="translate(214.29502, 191.546364)"><g><path d="M 17.03125 0 L 1.140625 0 L 1.140625 -2.703125 L 2.234375 -2.8125 C 2.890625 -2.875 3.21875 -3.1875 3.21875 -3.75 L 3.21875 -19.296875 L 1.296875 -19.40625 L 1.296875 -22.25 L 16.625 -22.25 L 16.625 -16.6875 L 13.21875 -16.453125 L 13.21875 -17.796875 C 13.21875 -18.171875 13.160156 -18.4375 13.046875 -18.59375 C 12.929688 -18.75 12.664062 -18.828125 12.25 -18.828125 L 7.296875 -18.828125 L 7.296875 -13.109375 L 15.015625 -13.109375 L 15.015625 -9.703125 L 7.296875 -9.703125 L 7.296875 -3.453125 L 12.671875 -3.453125 C 13.078125 -3.453125 13.332031 -3.535156 13.4375 -3.703125 C 13.550781 -3.867188 13.609375 -4.140625 13.609375 -4.515625 L 13.609375 -6.1875 L 17.03125 -5.953125 Z M 17.03125 0 "/></g></g></g><g fill="#ffffff" fill-opacity="1"><g transform="translate(232.657787, 191.546364)"><g><path d="M 1.078125 0 L 1.078125 -2.703125 L 2.171875 -2.8125 C 2.816406 -2.875 3.140625 -3.1875 3.140625 -3.75 L 3.140625 -19.296875 L 1.234375 -19.40625 L 1.234375 -22.25 L 10.375 -22.25 C 12.957031 -22.25 14.941406 -21.769531 16.328125 -20.8125 C 17.710938 -19.851562 18.40625 -18.28125 18.40625 -16.09375 C 18.40625 -14.570312 18.007812 -13.320312 17.21875 -12.34375 C 16.425781 -11.363281 15.484375 -10.648438 14.390625 -10.203125 C 15.191406 -9.910156 15.828125 -9.226562 16.296875 -8.15625 L 18.703125 -2.90625 L 20.609375 -2.84375 L 20.609375 0 L 12.34375 0 L 12.34375 -2.703125 L 13.3125 -2.8125 C 13.820312 -2.875 14.078125 -3.070312 14.078125 -3.40625 C 14.078125 -3.539062 14.035156 -3.695312 13.953125 -3.875 L 12.375 -7.21875 C 12.132812 -7.78125 11.863281 -8.175781 11.5625 -8.40625 C 11.257812 -8.644531 10.828125 -8.765625 10.265625 -8.765625 L 7.21875 -8.765625 L 7.21875 -2.9375 L 9.40625 -2.84375 L 9.40625 0 Z M 7.21875 -11.9375 L 10.140625 -11.9375 C 12.878906 -11.9375 14.25 -13.164062 14.25 -15.625 C 14.25 -17.03125 13.882812 -17.941406 13.15625 -18.359375 C 12.4375 -18.785156 11.273438 -19 9.671875 -19 L 7.21875 -19 Z M 7.21875 -11.9375 "/></g></g></g><g clip-path="url(#5fefba422f)"><path fill="#201f1d" d="M 113.445312 187.457031 C 113.28125 187.410156 112.597656 187.0625 112.121094 186.800781 C 111.644531 186.535156 111.363281 186.378906 110.710938 185.992188 C 110.058594 185.609375 109.78125 185.445312 109.320312 185.171875 C 108.863281 184.894531 108.21875 184.511719 107.945312 184.347656 C 107.675781 184.1875 107.039062 183.808594 106.589844 183.539062 C 106.136719 183.265625 105.871094 183.113281 105.242188 182.746094 C 104.617188 182.378906 104.351562 182.222656 103.910156 181.976562 C 103.472656 181.726562 102.851562 181.375 102.597656 181.234375 C 102.339844 181.09375 101.730469 180.761719 101.296875 180.53125 C 100.867188 180.296875 100.621094 180.171875 100.019531 179.867188 C 99.421875 179.558594 99.179688 179.429688 98.765625 179.230469 C 98.351562 179.035156 97.765625 178.75 97.535156 178.644531 C 97.300781 178.539062 96.722656 178.292969 96.320312 178.121094 C 95.917969 177.949219 95.695312 177.867188 95.128906 177.660156 C 94.5625 177.453125 94.34375 177.375 93.960938 177.261719 C 93.578125 177.148438 93.023438 176.988281 92.882812 176.949219 C 92.738281 176.90625 92.535156 176.859375 92.398438 176.824219 C 92.257812 176.792969 92.183594 176.777344 91.980469 176.734375 C 91.78125 176.691406 91.707031 176.675781 91.570312 176.652344 C 91.433594 176.628906 91.234375 176.59375 91.160156 176.582031 C 91.085938 176.570312 90.886719 176.539062 90.753906 176.519531 C 90.617188 176.5 90.542969 176.488281 90.347656 176.464844 C 90.152344 176.441406 90.078125 176.433594 89.945312 176.421875 C 89.8125 176.410156 89.617188 176.390625 89.546875 176.386719 C 89.472656 176.378906 89.28125 176.367188 89.148438 176.359375 C 89.015625 176.351562 88.945312 176.347656 88.753906 176.339844 C 88.5625 176.332031 88.492188 176.332031 88.359375 176.328125 C 88.230469 176.328125 88.039062 176.328125 87.96875 176.328125 C 87.898438 176.328125 87.710938 176.332031 87.578125 176.332031 C 87.449219 176.335938 87.378906 176.335938 87.191406 176.34375 C 87.003906 176.351562 86.933594 176.355469 86.808594 176.363281 C 86.679688 176.375 86.492188 176.386719 86.398438 176.394531 C 86.304688 176.402344 85.992188 176.433594 85.777344 176.453125 C 85.5625 176.476562 85.445312 176.492188 85.136719 176.535156 C 84.828125 176.578125 84.710938 176.59375 84.5 176.632812 C 84.285156 176.667969 83.980469 176.722656 83.863281 176.746094 C 83.746094 176.769531 83.441406 176.832031 83.234375 176.875 C 83.023438 176.921875 82.90625 176.949219 82.605469 177.023438 C 82.304688 177.09375 82.1875 177.125 81.980469 177.179688 C 81.769531 177.238281 81.472656 177.320312 81.355469 177.351562 C 81.238281 177.386719 80.941406 177.472656 80.734375 177.535156 C 80.527344 177.597656 80.410156 177.636719 80.117188 177.730469 C 79.820312 177.828125 79.703125 177.863281 79.496094 177.933594 C 79.292969 178.007812 79 178.105469 78.878906 178.148438 C 78.761719 178.191406 78.472656 178.296875 78.265625 178.371094 C 78.058594 178.445312 77.941406 178.488281 77.652344 178.597656 C 77.359375 178.707031 77.242188 178.753906 77.035156 178.832031 C 76.832031 178.910156 76.542969 179.023438 76.394531 179.082031 C 76.242188 179.144531 75.8125 179.3125 75.507812 179.433594 C 75.199219 179.558594 75.019531 179.628906 74.59375 179.804688 C 74.164062 179.976562 73.980469 180.050781 73.679688 180.171875 C 73.375 180.292969 72.953125 180.464844 72.769531 180.539062 C 72.585938 180.613281 72.167969 180.78125 71.863281 180.902344 C 71.5625 181.023438 71.378906 181.09375 70.964844 181.257812 C 70.546875 181.417969 70.363281 181.488281 70.066406 181.601562 C 69.769531 181.710938 69.359375 181.863281 69.175781 181.929688 C 68.992188 181.996094 68.585938 182.136719 68.292969 182.238281 C 67.996094 182.34375 67.8125 182.402344 67.414062 182.527344 C 67.015625 182.652344 66.832031 182.710938 66.542969 182.792969 C 66.253906 182.875 65.863281 182.984375 65.679688 183.03125 C 65.496094 183.078125 65.109375 183.167969 64.824219 183.234375 C 64.539062 183.300781 64.355469 183.335938 63.976562 183.402344 C 63.601562 183.46875 63.414062 183.503906 63.136719 183.535156 C 62.859375 183.566406 62.492188 183.609375 62.394531 183.621094 C 62.292969 183.632812 62.269531 183.632812 62.25 183.632812 C 62.234375 183.636719 62.222656 183.636719 62.199219 183.636719 C 62.175781 183.640625 62.164062 183.640625 62.144531 183.640625 C 62.125 183.644531 62.101562 183.644531 62.089844 183.644531 C 62.078125 183.644531 62.054688 183.648438 62.039062 183.648438 C 62.019531 183.648438 62.007812 183.652344 61.984375 183.652344 C 61.960938 183.652344 61.949219 183.652344 61.929688 183.65625 C 61.914062 183.65625 61.890625 183.65625 61.875 183.65625 C 61.863281 183.660156 61.839844 183.660156 61.824219 183.660156 C 61.804688 183.660156 61.792969 183.660156 61.769531 183.664062 C 61.746094 183.664062 61.734375 183.664062 61.714844 183.664062 C 61.699219 183.664062 61.675781 183.667969 61.664062 183.667969 C 61.652344 183.667969 61.628906 183.667969 61.609375 183.667969 C 61.59375 183.667969 61.578125 183.667969 61.558594 183.667969 C 61.535156 183.671875 61.519531 183.671875 61.503906 183.671875 C 61.484375 183.671875 61.460938 183.671875 61.359375 183.667969 C 61.253906 183.667969 60.878906 183.65625 60.59375 183.648438 C 60.308594 183.640625 60.117188 183.621094 59.757812 183.578125 C 59.398438 183.539062 59.207031 183.515625 58.941406 183.460938 C 58.675781 183.410156 58.332031 183.339844 58.152344 183.296875 C 57.972656 183.25 57.644531 183.15625 57.390625 183.082031 C 57.140625 183.007812 56.972656 182.941406 56.660156 182.824219 C 56.347656 182.703125 56.183594 182.636719 55.960938 182.527344 C 55.734375 182.421875 55.441406 182.277344 55.292969 182.199219 C 55.140625 182.117188 54.871094 181.957031 54.664062 181.832031 C 54.457031 181.710938 54.320312 181.613281 54.074219 181.4375 C 53.828125 181.261719 53.695312 181.164062 53.519531 181.015625 C 53.347656 180.867188 53.125 180.679688 53.011719 180.570312 C 52.894531 180.460938 52.699219 180.257812 52.546875 180.101562 C 52.394531 179.941406 52.296875 179.820312 52.132812 179.609375 C 51.964844 179.402344 51.867188 179.277344 51.757812 179.105469 C 51.648438 178.929688 51.515625 178.714844 51.441406 178.582031 C 51.367188 178.445312 51.261719 178.226562 51.179688 178.046875 C 51.09375 177.871094 51.046875 177.730469 50.972656 177.507812 C 50.898438 177.289062 50.855469 177.148438 50.816406 176.96875 C 50.78125 176.789062 50.734375 176.566406 50.714844 176.425781 C 50.695312 176.285156 50.675781 176.070312 50.664062 175.890625 C 50.648438 175.714844 50.652344 175.578125 50.660156 175.363281 C 50.667969 175.152344 50.675781 175.015625 50.699219 174.847656 C 50.726562 174.675781 50.757812 174.472656 50.785156 174.34375 C 50.8125 174.210938 50.867188 174.015625 50.910156 173.855469 C 50.953125 173.695312 51 173.574219 51.074219 173.386719 C 51.148438 173.203125 51.199219 173.082031 51.273438 172.941406 C 51.351562 172.796875 51.441406 172.625 51.507812 172.515625 C 51.578125 172.40625 51.691406 172.253906 51.785156 172.125 C 51.878906 171.996094 51.964844 171.902344 52.09375 171.765625 C 52.21875 171.628906 52.308594 171.535156 52.425781 171.4375 C 52.542969 171.335938 52.683594 171.21875 52.757812 171.164062 C 52.828125 171.109375 52.890625 171.070312 52.941406 171.03125 C 52.992188 170.996094 53.039062 170.96875 53.101562 170.933594 C 53.164062 170.894531 53.207031 170.867188 53.261719 170.839844 C 53.316406 170.808594 53.378906 170.773438 53.425781 170.75 C 53.46875 170.730469 53.535156 170.699219 53.589844 170.671875 C 53.648438 170.648438 53.691406 170.628906 53.761719 170.601562 C 53.828125 170.574219 53.871094 170.554688 53.929688 170.535156 C 53.984375 170.515625 54.054688 170.492188 54.101562 170.476562 C 54.144531 170.460938 54.214844 170.441406 54.273438 170.425781 C 54.332031 170.40625 54.375 170.394531 54.445312 170.378906 C 54.515625 170.359375 54.5625 170.347656 54.621094 170.335938 C 54.679688 170.324219 54.75 170.3125 54.792969 170.304688 C 54.839844 170.292969 54.910156 170.285156 54.96875 170.273438 C 55.027344 170.265625 55.074219 170.257812 55.144531 170.25 C 55.214844 170.246094 55.261719 170.238281 55.320312 170.234375 C 55.378906 170.230469 55.449219 170.226562 55.503906 170.222656 C 55.558594 170.21875 55.664062 170.214844 55.75 170.214844 C 55.832031 170.210938 55.894531 170.210938 56 170.214844 C 56.105469 170.21875 56.167969 170.21875 56.25 170.226562 C 56.332031 170.230469 56.4375 170.242188 56.5 170.246094 C 56.558594 170.25 56.664062 170.265625 56.742188 170.273438 C 56.824219 170.285156 56.886719 170.296875 56.988281 170.3125 C 57.085938 170.332031 57.148438 170.34375 57.226562 170.359375 C 57.304688 170.378906 57.402344 170.402344 57.460938 170.414062 C 57.519531 170.429688 57.613281 170.457031 57.691406 170.480469 C 57.769531 170.5 57.824219 170.519531 57.917969 170.550781 C 58.011719 170.582031 58.066406 170.597656 58.136719 170.625 C 58.210938 170.652344 58.300781 170.6875 58.355469 170.710938 C 58.40625 170.730469 58.492188 170.769531 58.5625 170.800781 C 58.632812 170.832031 58.683594 170.855469 58.765625 170.898438 C 58.847656 170.941406 58.898438 170.964844 58.960938 171 C 59.027344 171.035156 59.105469 171.082031 59.167969 171.121094 C 59.230469 171.160156 59.351562 171.242188 59.449219 171.308594 C 59.546875 171.375 59.617188 171.433594 59.722656 171.523438 C 59.828125 171.613281 59.898438 171.671875 59.976562 171.75 C 60.050781 171.828125 60.144531 171.925781 60.203125 171.988281 C 60.257812 172.050781 60.339844 172.152344 60.402344 172.234375 C 60.46875 172.320312 60.515625 172.390625 60.578125 172.496094 C 60.640625 172.601562 60.683594 172.667969 60.726562 172.761719 C 60.773438 172.851562 60.820312 172.957031 60.851562 173.03125 C 60.882812 173.105469 60.917969 173.21875 60.949219 173.308594 C 60.980469 173.402344 61 173.476562 61.019531 173.589844 C 61.042969 173.703125 61.058594 173.777344 61.066406 173.871094 C 61.074219 173.964844 61.082031 174.078125 61.085938 174.152344 C 61.085938 174.230469 61.082031 174.339844 61.078125 174.433594 C 61.074219 174.527344 61.0625 174.601562 61.042969 174.710938 C 61.023438 174.820312 61.011719 174.890625 60.984375 174.980469 C 60.960938 175.070312 60.925781 175.175781 60.902344 175.246094 C 60.875 175.316406 60.832031 175.417969 60.792969 175.5 C 60.753906 175.585938 60.71875 175.648438 60.660156 175.746094 C 60.601562 175.847656 60.570312 175.90625 60.515625 175.980469 C 60.457031 176.058594 60.386719 176.152344 60.347656 176.207031 C 60.304688 176.257812 60.226562 176.351562 60.164062 176.421875 C 60.101562 176.492188 60.058594 176.542969 59.964844 176.632812 C 59.875 176.722656 59.832031 176.765625 59.757812 176.832031 C 59.683594 176.898438 59.585938 176.984375 59.539062 177.027344 C 59.488281 177.066406 59.382812 177.152344 59.304688 177.214844 C 59.226562 177.273438 59.175781 177.3125 59.0625 177.394531 C 58.949219 177.476562 58.898438 177.511719 58.8125 177.570312 C 58.726562 177.628906 58.609375 177.707031 58.554688 177.738281 C 58.503906 177.773438 58.378906 177.847656 58.289062 177.902344 C 58.199219 177.957031 58.144531 177.988281 58.015625 178.058594 C 57.886719 178.132812 57.832031 178.164062 57.742188 178.214844 C 57.648438 178.265625 57.53125 178.351562 57.492188 178.378906 C 57.457031 178.410156 57.457031 178.410156 57.480469 178.390625 C 57.480469 178.390625 57.53125 178.351562 57.636719 178.25 C 57.742188 178.152344 57.785156 178.105469 57.859375 178.027344 C 57.929688 177.953125 58.027344 177.84375 58.070312 177.800781 C 58.113281 177.753906 58.210938 177.648438 58.28125 177.574219 C 58.351562 177.5 58.394531 177.457031 58.492188 177.355469 C 58.589844 177.25 58.628906 177.210938 58.695312 177.136719 C 58.761719 177.066406 58.855469 176.964844 58.890625 176.921875 C 58.929688 176.882812 59.015625 176.777344 59.078125 176.707031 C 59.140625 176.636719 59.171875 176.597656 59.257812 176.496094 C 59.339844 176.398438 59.371094 176.359375 59.421875 176.289062 C 59.472656 176.21875 59.550781 176.117188 59.574219 176.082031 C 59.597656 176.046875 59.664062 175.941406 59.710938 175.875 C 59.753906 175.804688 59.769531 175.773438 59.828125 175.667969 C 59.886719 175.5625 59.902344 175.535156 59.929688 175.464844 C 59.957031 175.398438 60.007812 175.292969 60.015625 175.265625 C 60.023438 175.242188 60.054688 175.132812 60.078125 175.066406 C 60.097656 175 60.101562 174.980469 60.121094 174.867188 C 60.140625 174.757812 60.144531 174.738281 60.148438 174.671875 C 60.152344 174.605469 60.160156 174.496094 60.160156 174.472656 C 60.15625 174.453125 60.152344 174.34375 60.148438 174.277344 C 60.144531 174.210938 60.136719 174.191406 60.117188 174.082031 C 60.097656 173.96875 60.09375 173.949219 60.074219 173.886719 C 60.054688 173.820312 60.019531 173.710938 60.011719 173.695312 C 60.003906 173.675781 59.960938 173.566406 59.933594 173.503906 C 59.90625 173.441406 59.890625 173.425781 59.832031 173.320312 C 59.773438 173.21875 59.761719 173.199219 59.71875 173.140625 C 59.671875 173.082031 59.597656 172.980469 59.582031 172.964844 C 59.566406 172.945312 59.480469 172.851562 59.429688 172.796875 C 59.375 172.738281 59.355469 172.722656 59.253906 172.632812 C 59.152344 172.546875 59.132812 172.527344 59.0625 172.480469 C 58.992188 172.429688 58.878906 172.351562 58.851562 172.332031 C 58.824219 172.316406 58.695312 172.242188 58.613281 172.195312 C 58.53125 172.148438 58.519531 172.144531 58.4375 172.105469 C 58.359375 172.066406 58.335938 172.054688 58.285156 172.035156 C 58.230469 172.011719 58.144531 171.976562 58.121094 171.964844 C 58.097656 171.957031 58.007812 171.925781 57.953125 171.902344 C 57.894531 171.882812 57.871094 171.875 57.777344 171.847656 C 57.683594 171.816406 57.660156 171.8125 57.597656 171.792969 C 57.539062 171.777344 57.441406 171.753906 57.414062 171.75 C 57.390625 171.742188 57.289062 171.722656 57.226562 171.707031 C 57.164062 171.695312 57.136719 171.691406 57.039062 171.675781 C 56.9375 171.660156 56.910156 171.652344 56.84375 171.648438 C 56.78125 171.640625 56.679688 171.628906 56.652344 171.625 C 56.625 171.625 56.519531 171.617188 56.457031 171.609375 C 56.390625 171.605469 56.363281 171.605469 56.261719 171.601562 C 56.15625 171.601562 56.128906 171.601562 56.0625 171.601562 C 56 171.605469 55.894531 171.605469 55.871094 171.609375 C 55.84375 171.609375 55.738281 171.621094 55.671875 171.625 C 55.605469 171.628906 55.59375 171.632812 55.523438 171.640625 C 55.453125 171.648438 55.433594 171.652344 55.390625 171.660156 C 55.347656 171.667969 55.277344 171.679688 55.261719 171.683594 C 55.246094 171.6875 55.175781 171.699219 55.132812 171.710938 C 55.089844 171.71875 55.078125 171.722656 55.007812 171.738281 C 54.9375 171.757812 54.921875 171.761719 54.882812 171.773438 C 54.839844 171.785156 54.773438 171.804688 54.757812 171.808594 C 54.746094 171.816406 54.679688 171.839844 54.640625 171.851562 C 54.597656 171.867188 54.585938 171.875 54.519531 171.898438 C 54.453125 171.925781 54.441406 171.929688 54.402344 171.949219 C 54.367188 171.964844 54.300781 171.996094 54.289062 172 C 54.28125 172.003906 54.214844 172.039062 54.179688 172.058594 C 54.144531 172.078125 54.132812 172.085938 54.070312 172.121094 C 54.007812 172.15625 54 172.160156 53.964844 172.183594 C 53.929688 172.207031 53.867188 172.246094 53.859375 172.253906 C 53.851562 172.257812 53.792969 172.300781 53.773438 172.316406 C 53.753906 172.332031 53.710938 172.371094 53.574219 172.492188 C 53.441406 172.613281 53.417969 172.632812 53.347656 172.714844 C 53.277344 172.796875 53.160156 172.9375 53.140625 172.964844 C 53.121094 172.992188 53.015625 173.148438 52.953125 173.242188 C 52.890625 173.335938 52.871094 173.367188 52.78125 173.539062 C 52.6875 173.710938 52.667969 173.746094 52.625 173.855469 C 52.582031 173.96875 52.507812 174.152344 52.496094 174.191406 C 52.480469 174.230469 52.425781 174.425781 52.394531 174.546875 C 52.363281 174.664062 52.355469 174.707031 52.324219 174.914062 C 52.292969 175.117188 52.285156 175.160156 52.28125 175.292969 C 52.277344 175.421875 52.269531 175.632812 52.269531 175.679688 C 52.273438 175.726562 52.289062 175.941406 52.300781 176.074219 C 52.308594 176.207031 52.320312 176.253906 52.367188 176.476562 C 52.410156 176.695312 52.417969 176.742188 52.464844 176.878906 C 52.511719 177.015625 52.585938 177.234375 52.605469 177.285156 C 52.625 177.335938 52.730469 177.554688 52.792969 177.691406 C 52.855469 177.828125 52.890625 177.878906 53.027344 178.097656 C 53.164062 178.3125 53.195312 178.367188 53.300781 178.5 C 53.40625 178.636719 53.574219 178.84375 53.625 178.902344 C 53.675781 178.960938 53.871094 179.164062 53.996094 179.292969 C 54.121094 179.425781 54.191406 179.480469 54.414062 179.671875 C 54.632812 179.863281 54.703125 179.921875 54.863281 180.035156 C 55.027344 180.152344 55.273438 180.328125 55.355469 180.382812 C 55.4375 180.4375 55.707031 180.597656 55.886719 180.703125 C 56.0625 180.808594 56.160156 180.855469 56.453125 180.996094 C 56.742188 181.136719 56.835938 181.183594 57.042969 181.261719 C 57.25 181.34375 57.5625 181.464844 57.667969 181.5 C 57.773438 181.535156 58.105469 181.632812 58.324219 181.695312 C 58.542969 181.761719 58.65625 181.78125 59.003906 181.851562 C 59.351562 181.921875 59.464844 181.945312 59.703125 181.972656 C 59.945312 182 60.304688 182.042969 60.425781 182.050781 C 60.550781 182.058594 60.921875 182.070312 61.1875 182.074219 C 61.457031 182.082031 61.429688 182.082031 61.453125 182.082031 C 61.476562 182.082031 61.484375 182.082031 61.5 182.082031 C 61.515625 182.082031 61.539062 182.082031 61.546875 182.082031 C 61.554688 182.078125 61.578125 182.078125 61.59375 182.078125 C 61.609375 182.078125 61.617188 182.078125 61.640625 182.078125 C 61.660156 182.078125 61.671875 182.074219 61.6875 182.074219 C 61.703125 182.074219 61.726562 182.074219 61.734375 182.074219 C 61.742188 182.074219 61.765625 182.070312 61.78125 182.070312 C 61.796875 182.070312 61.804688 182.070312 61.828125 182.070312 C 61.851562 182.066406 61.859375 182.066406 61.875 182.066406 C 61.890625 182.066406 61.914062 182.0625 61.921875 182.0625 C 61.929688 182.0625 61.953125 182.0625 61.96875 182.0625 C 61.984375 182.058594 61.992188 182.058594 62.015625 182.058594 C 62.039062 182.054688 62.046875 182.054688 62.0625 182.054688 C 62.078125 182.054688 62.101562 182.050781 62.113281 182.050781 C 62.121094 182.050781 62.144531 182.046875 62.144531 182.046875 C 62.148438 182.046875 62.304688 182.03125 62.671875 181.988281 C 63.042969 181.945312 63.171875 181.929688 63.429688 181.882812 C 63.6875 181.839844 64.066406 181.769531 64.207031 181.742188 C 64.351562 181.710938 64.734375 181.621094 65 181.558594 C 65.269531 181.496094 65.417969 181.453125 65.8125 181.34375 C 66.207031 181.234375 66.359375 181.191406 66.636719 181.105469 C 66.917969 181.015625 67.316406 180.886719 67.480469 180.835938 C 67.640625 180.78125 68.046875 180.640625 68.332031 180.539062 C 68.617188 180.441406 68.785156 180.378906 69.199219 180.222656 C 69.609375 180.070312 69.78125 180.007812 70.074219 179.894531 C 70.367188 179.777344 70.785156 179.617188 70.960938 179.546875 C 71.136719 179.476562 71.554688 179.308594 71.855469 179.191406 C 72.15625 179.070312 72.335938 178.996094 72.761719 178.824219 C 73.183594 178.652344 73.367188 178.578125 73.671875 178.457031 C 73.976562 178.332031 74.402344 178.160156 74.589844 178.085938 C 74.777344 178.011719 75.207031 177.839844 75.511719 177.71875 C 75.820312 177.59375 75.949219 177.546875 76.238281 177.433594 C 76.527344 177.320312 76.65625 177.273438 76.863281 177.195312 C 77.070312 177.113281 77.363281 177.003906 77.492188 176.957031 C 77.621094 176.910156 77.910156 176.804688 78.121094 176.726562 C 78.332031 176.652344 78.464844 176.605469 78.757812 176.507812 C 79.050781 176.40625 79.183594 176.359375 79.394531 176.289062 C 79.609375 176.222656 79.90625 176.125 80.039062 176.085938 C 80.175781 176.042969 80.46875 175.953125 80.6875 175.890625 C 80.902344 175.824219 81.042969 175.785156 81.339844 175.707031 C 81.636719 175.625 81.777344 175.585938 81.996094 175.53125 C 82.21875 175.480469 82.519531 175.40625 82.660156 175.375 C 82.800781 175.34375 83.105469 175.277344 83.328125 175.230469 C 83.550781 175.183594 83.695312 175.160156 84 175.105469 C 84.308594 175.050781 84.453125 175.027344 84.683594 174.992188 C 84.910156 174.960938 85.21875 174.917969 85.367188 174.902344 C 85.515625 174.882812 85.828125 174.851562 86.058594 174.828125 C 86.285156 174.808594 86.382812 174.800781 86.570312 174.789062 C 86.753906 174.773438 86.84375 174.769531 86.984375 174.761719 C 87.125 174.757812 87.3125 174.75 87.402344 174.746094 C 87.492188 174.746094 87.683594 174.742188 87.824219 174.738281 C 87.964844 174.738281 88.054688 174.738281 88.246094 174.738281 C 88.4375 174.742188 88.527344 174.742188 88.671875 174.746094 C 88.8125 174.753906 89.003906 174.761719 89.097656 174.765625 C 89.191406 174.769531 89.386719 174.78125 89.53125 174.792969 C 89.675781 174.800781 89.769531 174.808594 89.964844 174.828125 C 90.15625 174.84375 90.253906 174.855469 90.398438 174.871094 C 90.542969 174.890625 90.742188 174.914062 90.835938 174.925781 C 90.933594 174.9375 91.132812 174.96875 91.277344 174.988281 C 91.425781 175.011719 91.523438 175.03125 91.722656 175.066406 C 91.921875 175.101562 92.019531 175.117188 92.167969 175.148438 C 92.316406 175.179688 92.519531 175.222656 92.617188 175.246094 C 92.714844 175.265625 92.917969 175.316406 93.078125 175.351562 C 93.238281 175.390625 93.484375 175.464844 94.039062 175.625 C 94.59375 175.789062 94.859375 175.867188 95.277344 176.019531 C 95.691406 176.171875 96.257812 176.378906 96.523438 176.484375 C 96.789062 176.589844 97.367188 176.835938 97.789062 177.015625 C 98.210938 177.195312 98.476562 177.324219 99.066406 177.605469 C 99.652344 177.890625 99.917969 178.015625 100.347656 178.25 C 100.777344 178.480469 101.371094 178.804688 101.632812 178.957031 C 101.898438 179.109375 102.496094 179.464844 102.925781 179.71875 C 103.351562 179.976562 103.617188 180.144531 104.21875 180.53125 C 104.816406 180.914062 105.082031 181.082031 105.511719 181.371094 C 105.945312 181.664062 106.550781 182.070312 106.8125 182.253906 C 107.074219 182.433594 107.679688 182.859375 108.109375 183.167969 C 108.542969 183.472656 108.804688 183.664062 109.40625 184.109375 C 110.007812 184.554688 110.265625 184.746094 110.695312 185.074219 C 111.125 185.402344 111.71875 185.867188 111.972656 186.074219 C 112.222656 186.277344 112.808594 186.765625 113.074219 187.042969 C 113.480469 187.410156 113.3125 187.363281 113.445312 187.457031 Z M 113.445312 187.457031 " fill-opacity="1" fill-rule="nonzero"/></g><path fill="#201f1d" d="M 110.605469 182.542969 L 110.554688 182.527344 C 110.09375 182.3125 109.570312 182.035156 108.984375 181.695312 C 104.363281 178.929688 101.988281 177.539062 101.855469 177.527344 C 100.414062 176.753906 99.109375 176.117188 97.9375 175.621094 C 96.1875 174.867188 94.5 174.296875 92.878906 173.902344 C 91.371094 173.570312 89.996094 173.386719 88.75 173.355469 C 85.847656 173.371094 83.050781 173.777344 80.359375 174.578125 C 79.121094 174.921875 77.816406 175.339844 76.445312 175.835938 L 66.757812 179.535156 C 65.292969 180.039062 64.214844 180.363281 63.523438 180.507812 C 61.574219 180.992188 59.96875 180.925781 58.703125 180.300781 C 59.957031 180.539062 61.492188 180.332031 63.304688 179.679688 C 64.015625 179.433594 64.871094 179.097656 65.871094 178.664062 C 69.929688 176.789062 72.644531 175.582031 74.015625 175.042969 C 75.792969 174.339844 77.753906 173.675781 79.910156 173.054688 C 82.816406 172.195312 85.789062 171.765625 88.820312 171.769531 C 92.335938 171.941406 95.667969 172.796875 98.816406 174.328125 C 103.605469 176.828125 107.535156 179.566406 110.605469 182.542969 " fill-opacity="1" fill-rule="nonzero"/><g clip-path="url(#a21dd8340f)"><path fill="#201f1d" d="M 258.859375 187.457031 C 259.023438 187.410156 259.707031 187.0625 260.183594 186.800781 C 260.660156 186.535156 260.941406 186.378906 261.59375 185.992188 C 262.246094 185.609375 262.527344 185.445312 262.984375 185.171875 C 263.445312 184.894531 264.085938 184.511719 264.359375 184.347656 C 264.628906 184.1875 265.265625 183.808594 265.71875 183.539062 C 266.167969 183.265625 266.433594 183.113281 267.0625 182.746094 C 267.691406 182.378906 267.953125 182.222656 268.394531 181.976562 C 268.835938 181.726562 269.453125 181.375 269.707031 181.234375 C 269.964844 181.09375 270.574219 180.761719 271.007812 180.53125 C 271.4375 180.296875 271.683594 180.171875 272.285156 179.867188 C 272.886719 179.558594 273.128906 179.429688 273.539062 179.230469 C 273.953125 179.035156 274.539062 178.75 274.773438 178.644531 C 275.003906 178.539062 275.582031 178.292969 275.984375 178.121094 C 276.386719 177.949219 276.609375 177.867188 277.175781 177.660156 C 277.742188 177.453125 277.960938 177.375 278.34375 177.261719 C 278.726562 177.148438 279.28125 176.988281 279.425781 176.949219 C 279.566406 176.90625 279.769531 176.859375 279.910156 176.824219 C 280.046875 176.792969 280.121094 176.777344 280.324219 176.734375 C 280.523438 176.691406 280.601562 176.675781 280.738281 176.652344 C 280.875 176.628906 281.074219 176.59375 281.144531 176.582031 C 281.21875 176.570312 281.417969 176.539062 281.554688 176.519531 C 281.6875 176.5 281.761719 176.488281 281.957031 176.464844 C 282.152344 176.441406 282.226562 176.433594 282.359375 176.421875 C 282.492188 176.410156 282.6875 176.390625 282.757812 176.386719 C 282.832031 176.378906 283.023438 176.367188 283.15625 176.359375 C 283.289062 176.351562 283.359375 176.347656 283.550781 176.339844 C 283.742188 176.332031 283.816406 176.332031 283.945312 176.328125 C 284.074219 176.328125 284.265625 176.328125 284.335938 176.328125 C 284.40625 176.328125 284.597656 176.332031 284.726562 176.332031 C 284.855469 176.335938 284.925781 176.335938 285.113281 176.34375 C 285.300781 176.351562 285.371094 176.355469 285.5 176.363281 C 285.625 176.375 285.8125 176.386719 285.90625 176.394531 C 286 176.402344 286.3125 176.433594 286.527344 176.453125 C 286.742188 176.476562 286.859375 176.492188 287.167969 176.535156 C 287.476562 176.578125 287.597656 176.59375 287.808594 176.632812 C 288.019531 176.667969 288.324219 176.722656 288.441406 176.746094 C 288.558594 176.769531 288.863281 176.832031 289.074219 176.875 C 289.28125 176.921875 289.398438 176.949219 289.699219 177.023438 C 290 177.09375 290.117188 177.125 290.328125 177.179688 C 290.535156 177.238281 290.832031 177.320312 290.949219 177.351562 C 291.066406 177.386719 291.363281 177.472656 291.570312 177.535156 C 291.777344 177.597656 291.894531 177.636719 292.191406 177.730469 C 292.484375 177.828125 292.601562 177.863281 292.808594 177.933594 C 293.011719 178.007812 293.304688 178.105469 293.425781 178.148438 C 293.542969 178.191406 293.835938 178.296875 294.039062 178.371094 C 294.246094 178.445312 294.363281 178.488281 294.65625 178.597656 C 294.945312 178.707031 295.066406 178.753906 295.269531 178.832031 C 295.472656 178.910156 295.761719 179.023438 295.914062 179.082031 C 296.0625 179.144531 296.492188 179.3125 296.800781 179.433594 C 297.105469 179.558594 297.285156 179.628906 297.714844 179.804688 C 298.140625 179.976562 298.324219 180.050781 298.625 180.171875 C 298.929688 180.292969 299.351562 180.464844 299.535156 180.539062 C 299.71875 180.613281 300.140625 180.78125 300.441406 180.902344 C 300.742188 181.023438 300.925781 181.09375 301.339844 181.257812 C 301.757812 181.417969 301.941406 181.488281 302.238281 181.601562 C 302.535156 181.710938 302.945312 181.863281 303.128906 181.929688 C 303.3125 181.996094 303.71875 182.136719 304.015625 182.238281 C 304.308594 182.34375 304.492188 182.402344 304.890625 182.527344 C 305.289062 182.652344 305.476562 182.710938 305.761719 182.792969 C 306.050781 182.875 306.441406 182.984375 306.625 183.03125 C 306.8125 183.078125 307.195312 183.167969 307.480469 183.234375 C 307.765625 183.300781 307.949219 183.335938 308.328125 183.402344 C 308.703125 183.46875 308.890625 183.503906 309.167969 183.535156 C 309.445312 183.566406 309.8125 183.609375 309.914062 183.621094 C 310.011719 183.632812 310.035156 183.632812 310.054688 183.632812 C 310.070312 183.636719 310.082031 183.636719 310.105469 183.636719 C 310.132812 183.640625 310.144531 183.640625 310.160156 183.640625 C 310.179688 183.644531 310.203125 183.644531 310.214844 183.644531 C 310.226562 183.644531 310.25 183.648438 310.269531 183.648438 C 310.285156 183.648438 310.296875 183.652344 310.320312 183.652344 C 310.34375 183.652344 310.359375 183.652344 310.375 183.65625 C 310.394531 183.65625 310.417969 183.65625 310.429688 183.65625 C 310.441406 183.660156 310.464844 183.660156 310.480469 183.660156 C 310.5 183.660156 310.511719 183.660156 310.535156 183.664062 C 310.558594 183.664062 310.570312 183.664062 310.589844 183.664062 C 310.605469 183.664062 310.628906 183.667969 310.640625 183.667969 C 310.65625 183.667969 310.675781 183.667969 310.695312 183.667969 C 310.714844 183.667969 310.726562 183.667969 310.75 183.667969 C 310.773438 183.671875 310.785156 183.671875 310.800781 183.671875 C 310.820312 183.671875 310.84375 183.671875 310.949219 183.667969 C 311.050781 183.667969 311.425781 183.65625 311.710938 183.648438 C 311.996094 183.640625 312.1875 183.621094 312.546875 183.578125 C 312.910156 183.539062 313.097656 183.515625 313.363281 183.460938 C 313.628906 183.410156 313.976562 183.339844 314.152344 183.296875 C 314.332031 183.25 314.664062 183.15625 314.914062 183.082031 C 315.167969 183.007812 315.332031 182.941406 315.644531 182.824219 C 315.957031 182.703125 316.121094 182.636719 316.347656 182.527344 C 316.570312 182.421875 316.863281 182.277344 317.011719 182.199219 C 317.164062 182.117188 317.433594 181.957031 317.640625 181.832031 C 317.847656 181.710938 317.984375 181.613281 318.230469 181.4375 C 318.476562 181.261719 318.613281 181.164062 318.785156 181.015625 C 318.957031 180.867188 319.179688 180.679688 319.292969 180.570312 C 319.410156 180.460938 319.605469 180.257812 319.757812 180.101562 C 319.910156 179.941406 320.007812 179.820312 320.175781 179.609375 C 320.339844 179.402344 320.4375 179.277344 320.546875 179.105469 C 320.65625 178.929688 320.792969 178.714844 320.863281 178.582031 C 320.9375 178.445312 321.042969 178.226562 321.125 178.046875 C 321.210938 177.871094 321.257812 177.730469 321.332031 177.507812 C 321.40625 177.289062 321.449219 177.148438 321.488281 176.96875 C 321.527344 176.789062 321.570312 176.566406 321.589844 176.425781 C 321.609375 176.285156 321.628906 176.070312 321.640625 175.890625 C 321.65625 175.714844 321.652344 175.578125 321.644531 175.363281 C 321.636719 175.152344 321.628906 175.015625 321.605469 174.847656 C 321.578125 174.675781 321.546875 174.472656 321.519531 174.34375 C 321.492188 174.210938 321.441406 174.015625 321.394531 173.855469 C 321.351562 173.695312 321.304688 173.574219 321.230469 173.386719 C 321.15625 173.203125 321.109375 173.082031 321.03125 172.941406 C 320.957031 172.796875 320.863281 172.625 320.796875 172.515625 C 320.726562 172.40625 320.613281 172.253906 320.519531 172.125 C 320.425781 171.996094 320.339844 171.902344 320.214844 171.765625 C 320.085938 171.628906 319.996094 171.535156 319.878906 171.4375 C 319.761719 171.335938 319.621094 171.21875 319.546875 171.164062 C 319.476562 171.109375 319.414062 171.070312 319.363281 171.03125 C 319.3125 170.996094 319.265625 170.96875 319.203125 170.933594 C 319.144531 170.894531 319.097656 170.867188 319.042969 170.839844 C 318.988281 170.808594 318.925781 170.773438 318.878906 170.75 C 318.835938 170.730469 318.769531 170.699219 318.714844 170.671875 C 318.660156 170.648438 318.613281 170.628906 318.546875 170.601562 C 318.480469 170.574219 318.433594 170.554688 318.375 170.535156 C 318.320312 170.515625 318.25 170.492188 318.207031 170.476562 C 318.160156 170.460938 318.089844 170.441406 318.03125 170.425781 C 317.976562 170.40625 317.929688 170.394531 317.859375 170.378906 C 317.789062 170.359375 317.742188 170.347656 317.683594 170.335938 C 317.628906 170.324219 317.554688 170.3125 317.511719 170.304688 C 317.464844 170.292969 317.394531 170.285156 317.335938 170.273438 C 317.277344 170.265625 317.230469 170.257812 317.160156 170.25 C 317.089844 170.246094 317.042969 170.238281 316.984375 170.234375 C 316.925781 170.230469 316.855469 170.226562 316.800781 170.222656 C 316.746094 170.21875 316.640625 170.214844 316.558594 170.214844 C 316.472656 170.210938 316.410156 170.210938 316.304688 170.214844 C 316.203125 170.21875 316.136719 170.21875 316.054688 170.226562 C 315.972656 170.230469 315.867188 170.242188 315.808594 170.246094 C 315.746094 170.25 315.644531 170.265625 315.5625 170.273438 C 315.480469 170.285156 315.421875 170.296875 315.320312 170.3125 C 315.21875 170.332031 315.160156 170.34375 315.082031 170.359375 C 315 170.378906 314.902344 170.402344 314.84375 170.414062 C 314.789062 170.429688 314.691406 170.457031 314.613281 170.480469 C 314.539062 170.5 314.480469 170.519531 314.386719 170.550781 C 314.292969 170.582031 314.238281 170.597656 314.167969 170.625 C 314.09375 170.652344 314.003906 170.6875 313.953125 170.710938 C 313.898438 170.730469 313.8125 170.769531 313.742188 170.800781 C 313.671875 170.832031 313.621094 170.855469 313.539062 170.898438 C 313.457031 170.941406 313.40625 170.964844 313.34375 171 C 313.28125 171.035156 313.199219 171.082031 313.136719 171.121094 C 313.074219 171.160156 312.953125 171.242188 312.855469 171.308594 C 312.757812 171.375 312.6875 171.433594 312.582031 171.523438 C 312.476562 171.613281 312.40625 171.671875 312.328125 171.75 C 312.253906 171.828125 312.160156 171.925781 312.101562 171.988281 C 312.046875 172.050781 311.96875 172.152344 311.902344 172.234375 C 311.835938 172.320312 311.792969 172.390625 311.726562 172.496094 C 311.664062 172.601562 311.621094 172.667969 311.578125 172.761719 C 311.535156 172.851562 311.484375 172.957031 311.453125 173.03125 C 311.421875 173.105469 311.386719 173.21875 311.355469 173.308594 C 311.324219 173.402344 311.308594 173.476562 311.285156 173.589844 C 311.261719 173.703125 311.246094 173.777344 311.238281 173.871094 C 311.230469 173.964844 311.222656 174.078125 311.21875 174.152344 C 311.21875 174.230469 311.222656 174.339844 311.226562 174.433594 C 311.230469 174.527344 311.242188 174.601562 311.261719 174.710938 C 311.28125 174.820312 311.292969 174.890625 311.320312 174.980469 C 311.347656 175.070312 311.378906 175.175781 311.40625 175.246094 C 311.429688 175.316406 311.476562 175.417969 311.511719 175.5 C 311.550781 175.585938 311.585938 175.648438 311.644531 175.746094 C 311.703125 175.847656 311.738281 175.90625 311.792969 175.980469 C 311.847656 176.058594 311.917969 176.152344 311.957031 176.207031 C 312 176.257812 312.078125 176.351562 312.140625 176.421875 C 312.203125 176.492188 312.246094 176.542969 312.339844 176.632812 C 312.429688 176.722656 312.476562 176.765625 312.546875 176.832031 C 312.621094 176.898438 312.71875 176.984375 312.765625 177.027344 C 312.816406 177.066406 312.921875 177.152344 313 177.214844 C 313.078125 177.273438 313.128906 177.3125 313.242188 177.394531 C 313.355469 177.476562 313.40625 177.511719 313.492188 177.570312 C 313.578125 177.628906 313.695312 177.707031 313.75 177.738281 C 313.804688 177.773438 313.925781 177.847656 314.015625 177.902344 C 314.105469 177.957031 314.160156 177.988281 314.289062 178.058594 C 314.417969 178.132812 314.472656 178.164062 314.566406 178.214844 C 314.65625 178.265625 314.773438 178.351562 314.8125 178.378906 C 314.847656 178.410156 314.847656 178.410156 314.824219 178.390625 C 314.824219 178.390625 314.773438 178.351562 314.667969 178.25 C 314.5625 178.152344 314.519531 178.105469 314.449219 178.027344 C 314.378906 177.953125 314.277344 177.84375 314.234375 177.800781 C 314.191406 177.753906 314.09375 177.648438 314.023438 177.574219 C 313.953125 177.5 313.914062 177.457031 313.816406 177.355469 C 313.71875 177.25 313.675781 177.210938 313.609375 177.136719 C 313.542969 177.066406 313.449219 176.964844 313.414062 176.921875 C 313.378906 176.882812 313.289062 176.777344 313.226562 176.707031 C 313.164062 176.636719 313.132812 176.597656 313.046875 176.496094 C 312.964844 176.398438 312.933594 176.359375 312.882812 176.289062 C 312.832031 176.21875 312.757812 176.117188 312.730469 176.082031 C 312.707031 176.046875 312.640625 175.941406 312.597656 175.875 C 312.550781 175.804688 312.535156 175.773438 312.476562 175.667969 C 312.421875 175.5625 312.40625 175.535156 312.375 175.464844 C 312.347656 175.398438 312.300781 175.292969 312.289062 175.265625 C 312.28125 175.242188 312.25 175.132812 312.226562 175.066406 C 312.207031 175 312.203125 174.980469 312.183594 174.867188 C 312.164062 174.757812 312.160156 174.738281 312.15625 174.671875 C 312.152344 174.605469 312.144531 174.496094 312.148438 174.472656 C 312.148438 174.453125 312.152344 174.34375 312.15625 174.277344 C 312.160156 174.210938 312.167969 174.191406 312.1875 174.082031 C 312.207031 173.96875 312.210938 173.949219 312.230469 173.886719 C 312.25 173.820312 312.285156 173.710938 312.292969 173.695312 C 312.300781 173.675781 312.34375 173.566406 312.371094 173.503906 C 312.402344 173.441406 312.414062 173.425781 312.472656 173.320312 C 312.535156 173.21875 312.542969 173.199219 312.589844 173.140625 C 312.632812 173.082031 312.707031 172.980469 312.722656 172.964844 C 312.738281 172.945312 312.828125 172.851562 312.878906 172.796875 C 312.929688 172.738281 312.949219 172.722656 313.050781 172.632812 C 313.152344 172.546875 313.171875 172.527344 313.242188 172.480469 C 313.3125 172.429688 313.425781 172.351562 313.453125 172.332031 C 313.480469 172.316406 313.609375 172.242188 313.691406 172.195312 C 313.773438 172.148438 313.785156 172.144531 313.867188 172.105469 C 313.949219 172.066406 313.96875 172.054688 314.019531 172.035156 C 314.074219 172.011719 314.160156 171.976562 314.183594 171.964844 C 314.207031 171.957031 314.296875 171.925781 314.351562 171.902344 C 314.410156 171.882812 314.433594 171.875 314.527344 171.847656 C 314.621094 171.816406 314.644531 171.8125 314.707031 171.792969 C 314.765625 171.777344 314.863281 171.753906 314.890625 171.75 C 314.917969 171.742188 315.015625 171.722656 315.078125 171.707031 C 315.140625 171.695312 315.167969 171.691406 315.265625 171.675781 C 315.367188 171.660156 315.394531 171.652344 315.460938 171.648438 C 315.523438 171.640625 315.625 171.628906 315.652344 171.625 C 315.679688 171.625 315.785156 171.617188 315.847656 171.609375 C 315.914062 171.605469 315.941406 171.605469 316.046875 171.601562 C 316.148438 171.601562 316.175781 171.601562 316.242188 171.601562 C 316.304688 171.605469 316.410156 171.605469 316.4375 171.609375 C 316.460938 171.609375 316.566406 171.621094 316.632812 171.625 C 316.699219 171.628906 316.710938 171.632812 316.78125 171.640625 C 316.855469 171.648438 316.871094 171.652344 316.914062 171.660156 C 316.957031 171.667969 317.027344 171.679688 317.042969 171.683594 C 317.058594 171.6875 317.128906 171.699219 317.171875 171.710938 C 317.214844 171.71875 317.230469 171.722656 317.296875 171.738281 C 317.367188 171.757812 317.382812 171.761719 317.421875 171.773438 C 317.464844 171.785156 317.535156 171.804688 317.546875 171.808594 C 317.558594 171.816406 317.625 171.839844 317.667969 171.851562 C 317.707031 171.867188 317.71875 171.875 317.785156 171.898438 C 317.851562 171.925781 317.863281 171.929688 317.902344 171.949219 C 317.941406 171.964844 318.003906 171.996094 318.015625 172 C 318.027344 172.003906 318.089844 172.039062 318.125 172.058594 C 318.164062 172.078125 318.171875 172.085938 318.234375 172.121094 C 318.296875 172.15625 318.304688 172.160156 318.339844 172.183594 C 318.375 172.207031 318.4375 172.246094 318.445312 172.253906 C 318.453125 172.257812 318.511719 172.300781 318.53125 172.316406 C 318.554688 172.332031 318.59375 172.371094 318.730469 172.492188 C 318.867188 172.613281 318.886719 172.632812 318.957031 172.714844 C 319.027344 172.796875 319.148438 172.9375 319.164062 172.964844 C 319.183594 172.992188 319.289062 173.148438 319.355469 173.242188 C 319.417969 173.335938 319.433594 173.367188 319.527344 173.539062 C 319.617188 173.710938 319.636719 173.746094 319.679688 173.855469 C 319.722656 173.96875 319.796875 174.152344 319.8125 174.191406 C 319.824219 174.230469 319.878906 174.425781 319.910156 174.546875 C 319.945312 174.664062 319.949219 174.707031 319.980469 174.914062 C 320.011719 175.117188 320.019531 175.160156 320.023438 175.292969 C 320.027344 175.421875 320.035156 175.632812 320.035156 175.679688 C 320.035156 175.726562 320.015625 175.941406 320.003906 176.074219 C 319.996094 176.207031 319.984375 176.253906 319.941406 176.476562 C 319.894531 176.695312 319.886719 176.742188 319.839844 176.878906 C 319.796875 177.015625 319.722656 177.234375 319.699219 177.285156 C 319.679688 177.335938 319.578125 177.554688 319.511719 177.691406 C 319.449219 177.828125 319.414062 177.878906 319.277344 178.097656 C 319.144531 178.3125 319.109375 178.367188 319.003906 178.5 C 318.898438 178.636719 318.730469 178.84375 318.679688 178.902344 C 318.628906 178.960938 318.433594 179.164062 318.308594 179.292969 C 318.183594 179.425781 318.113281 179.480469 317.894531 179.671875 C 317.671875 179.863281 317.605469 179.921875 317.441406 180.035156 C 317.277344 180.152344 317.03125 180.328125 316.949219 180.382812 C 316.867188 180.4375 316.597656 180.597656 316.417969 180.703125 C 316.242188 180.808594 316.144531 180.855469 315.855469 180.996094 C 315.5625 181.136719 315.46875 181.183594 315.261719 181.261719 C 315.054688 181.34375 314.742188 181.464844 314.636719 181.5 C 314.53125 181.535156 314.199219 181.632812 313.980469 181.695312 C 313.761719 181.761719 313.648438 181.78125 313.300781 181.851562 C 312.957031 181.921875 312.84375 181.945312 312.601562 181.972656 C 312.359375 182 312 182.042969 311.878906 182.050781 C 311.757812 182.058594 311.382812 182.070312 311.117188 182.074219 C 310.851562 182.082031 310.875 182.082031 310.851562 182.082031 C 310.832031 182.082031 310.824219 182.082031 310.808594 182.082031 C 310.792969 182.082031 310.769531 182.082031 310.761719 182.082031 C 310.753906 182.078125 310.730469 182.078125 310.714844 182.078125 C 310.699219 182.078125 310.691406 182.078125 310.667969 182.078125 C 310.644531 182.078125 310.636719 182.074219 310.621094 182.074219 C 310.605469 182.074219 310.582031 182.074219 310.574219 182.074219 C 310.566406 182.074219 310.542969 182.070312 310.527344 182.070312 C 310.511719 182.070312 310.503906 182.070312 310.480469 182.070312 C 310.453125 182.066406 310.445312 182.066406 310.429688 182.066406 C 310.414062 182.066406 310.390625 182.0625 310.382812 182.0625 C 310.375 182.0625 310.351562 182.0625 310.335938 182.0625 C 310.320312 182.058594 310.3125 182.058594 310.289062 182.058594 C 310.265625 182.054688 310.257812 182.054688 310.242188 182.054688 C 310.226562 182.054688 310.203125 182.050781 310.195312 182.050781 C 310.1875 182.050781 310.160156 182.046875 310.160156 182.046875 C 310.15625 182.046875 310 182.03125 309.632812 181.988281 C 309.265625 181.945312 309.132812 181.929688 308.875 181.882812 C 308.617188 181.839844 308.242188 181.769531 308.097656 181.742188 C 307.957031 181.710938 307.570312 181.621094 307.304688 181.558594 C 307.039062 181.496094 306.886719 181.453125 306.492188 181.34375 C 306.101562 181.234375 305.945312 181.191406 305.667969 181.105469 C 305.386719 181.015625 304.988281 180.886719 304.828125 180.835938 C 304.664062 180.78125 304.257812 180.640625 303.972656 180.539062 C 303.6875 180.441406 303.519531 180.378906 303.109375 180.222656 C 302.695312 180.070312 302.527344 180.007812 302.230469 179.894531 C 301.9375 179.777344 301.519531 179.617188 301.34375 179.546875 C 301.167969 179.476562 300.75 179.308594 300.449219 179.191406 C 300.148438 179.070312 299.96875 178.996094 299.546875 178.824219 C 299.121094 178.652344 298.9375 178.578125 298.632812 178.457031 C 298.328125 178.332031 297.902344 178.160156 297.714844 178.085938 C 297.53125 178.011719 297.101562 177.839844 296.792969 177.71875 C 296.484375 177.59375 296.355469 177.546875 296.066406 177.433594 C 295.777344 177.320312 295.652344 177.273438 295.441406 177.195312 C 295.234375 177.113281 294.945312 177.003906 294.8125 176.957031 C 294.683594 176.910156 294.394531 176.804688 294.183594 176.726562 C 293.972656 176.652344 293.839844 176.605469 293.546875 176.507812 C 293.253906 176.40625 293.121094 176.359375 292.910156 176.289062 C 292.695312 176.222656 292.402344 176.125 292.265625 176.085938 C 292.132812 176.042969 291.835938 175.953125 291.617188 175.890625 C 291.402344 175.824219 291.265625 175.785156 290.964844 175.707031 C 290.667969 175.625 290.527344 175.585938 290.308594 175.53125 C 290.089844 175.480469 289.789062 175.40625 289.644531 175.375 C 289.503906 175.34375 289.199219 175.277344 288.976562 175.230469 C 288.753906 175.183594 288.609375 175.160156 288.304688 175.105469 C 287.996094 175.050781 287.851562 175.027344 287.625 174.992188 C 287.394531 174.960938 287.085938 174.917969 286.9375 174.902344 C 286.789062 174.882812 286.476562 174.851562 286.246094 174.828125 C 286.019531 174.808594 285.921875 174.800781 285.738281 174.789062 C 285.550781 174.773438 285.460938 174.769531 285.320312 174.761719 C 285.183594 174.757812 284.996094 174.75 284.902344 174.746094 C 284.8125 174.746094 284.621094 174.742188 284.480469 174.738281 C 284.34375 174.738281 284.25 174.738281 284.058594 174.738281 C 283.867188 174.742188 283.777344 174.742188 283.632812 174.746094 C 283.492188 174.753906 283.300781 174.761719 283.207031 174.765625 C 283.113281 174.769531 282.917969 174.78125 282.773438 174.792969 C 282.632812 174.800781 282.535156 174.808594 282.34375 174.828125 C 282.148438 174.84375 282.050781 174.855469 281.90625 174.871094 C 281.761719 174.890625 281.5625 174.914062 281.46875 174.925781 C 281.371094 174.9375 281.175781 174.96875 281.027344 174.988281 C 280.878906 175.011719 280.78125 175.03125 280.582031 175.066406 C 280.382812 175.101562 280.285156 175.117188 280.136719 175.148438 C 279.988281 175.179688 279.785156 175.222656 279.6875 175.246094 C 279.589844 175.265625 279.386719 175.316406 279.226562 175.351562 C 279.070312 175.390625 278.820312 175.464844 278.265625 175.625 C 277.710938 175.789062 277.445312 175.867188 277.03125 176.019531 C 276.613281 176.171875 276.046875 176.378906 275.78125 176.484375 C 275.515625 176.589844 274.9375 176.835938 274.515625 177.015625 C 274.09375 177.195312 273.828125 177.324219 273.238281 177.605469 C 272.652344 177.890625 272.386719 178.015625 271.957031 178.25 C 271.527344 178.480469 270.9375 178.804688 270.671875 178.957031 C 270.40625 179.109375 269.808594 179.464844 269.382812 179.71875 C 268.953125 179.976562 268.6875 180.144531 268.085938 180.53125 C 267.488281 180.914062 267.226562 181.082031 266.792969 181.371094 C 266.359375 181.664062 265.753906 182.070312 265.492188 182.253906 C 265.230469 182.433594 264.625 182.859375 264.195312 183.167969 C 263.765625 183.472656 263.503906 183.664062 262.898438 184.109375 C 262.296875 184.554688 262.039062 184.746094 261.609375 185.074219 C 261.179688 185.402344 260.585938 185.867188 260.332031 186.074219 C 260.082031 186.277344 259.496094 186.765625 259.230469 187.042969 C 258.828125 187.410156 258.992188 187.363281 258.859375 187.457031 Z M 258.859375 187.457031 " fill-opacity="1" fill-rule="nonzero"/></g><path fill="#201f1d" d="M 261.699219 182.542969 L 261.75 182.527344 C 262.210938 182.3125 262.738281 182.035156 263.320312 181.695312 C 267.941406 178.929688 270.316406 177.539062 270.453125 177.527344 C 271.890625 176.753906 273.195312 176.117188 274.367188 175.621094 C 276.117188 174.867188 277.804688 174.296875 279.425781 173.902344 C 280.933594 173.570312 282.308594 173.386719 283.554688 173.355469 C 286.457031 173.371094 289.253906 173.777344 291.945312 174.578125 C 293.183594 174.921875 294.488281 175.339844 295.859375 175.835938 L 305.546875 179.535156 C 307.011719 180.039062 308.089844 180.363281 308.78125 180.507812 C 310.730469 180.992188 312.335938 180.925781 313.601562 180.300781 C 312.347656 180.539062 310.8125 180.332031 309 179.679688 C 308.289062 179.433594 307.433594 179.097656 306.4375 178.664062 C 302.375 176.789062 299.660156 175.582031 298.289062 175.042969 C 296.515625 174.339844 294.550781 173.675781 292.394531 173.054688 C 289.488281 172.195312 286.515625 171.765625 283.484375 171.769531 C 279.96875 171.941406 276.636719 172.796875 273.488281 174.328125 C 268.699219 176.828125 264.769531 179.566406 261.699219 182.542969 " fill-opacity="1" fill-rule="nonzero"/></svg>